<svg xmlns="http://www.w3.org/2000/svg" xmlns:xlink="http://www.w3.org/1999/xlink" width="806" height="293.1"><rect width="806" height="293.1" rx="5" ry="5" class="a"/><svg y="0%" x="0%"><circle cx="20" cy="20" r="6" fill="#ff5f58"/><circle cx="40" cy="20" r="6" fill="#ffbd2e"/><circle cx="60" cy="20" r="6" fill="#18c132"/></svg><svg height="217.1" viewBox="0 0 75 21.71" width="750" x="23" xmlns="http://www.w3.org/2000/svg" xmlns:xlink="http://www.w3.org/1999/xlink" y="58"><style>@keyframes j{0%{transform:translateX(-150px)}.4%{transform:translateX(-225px)}.7%{transform:translateX(-300px)}1.1%{transform:translateX(-375px)}1.4%{transform:translateX(-450px)}1.8%{transform:translateX(-525px)}2.2%{transform:translateX(-600px)}2.5%{transform:translateX(-675px)}2.9%{transform:translateX(-750px)}3.3%{transform:translateX(-825px)}3.6%{transform:translateX(-900px)}4%{transform:translateX(-975px)}4.4%{transform:translateX(-1050px)}4.8%{transform:translateX(-1125px)}5.2%{transform:translateX(-1200px)}5.5%{transform:translateX(-1275px)}5.9%{transform:translateX(-1350px)}6.3%{transform:translateX(-1425px)}6.7%{transform:translateX(-1500px)}7.1%{transform:translateX(-1575px)}7.5%{transform:translateX(-1650px)}7.8%{transform:translateX(-1725px)}8.2%{transform:translateX(-1800px)}8.6%{transform:translateX(-1875px)}9%{transform:translateX(-1950px)}9.4%{transform:translateX(-2025px)}9.8%{transform:translateX(-2100px)}10.2%{transform:translateX(-2175px)}10.6%{transform:translateX(-2250px)}11%{transform:translateX(-2325px)}11.4%{transform:translateX(-2400px)}11.7%{transform:translateX(-2475px)}12.1%{transform:translateX(-2550px)}12.5%{transform:translateX(-2625px)}12.9%{transform:translateX(-2700px)}13.3%{transform:translateX(-2775px)}13.7%{transform:translateX(-2850px)}14.1%{transform:translateX(-2925px)}14.5%{transform:translateX(-3000px)}18.8%{transform:translateX(-3075px)}29.4%{transform:translateX(-3225px)}29.8%{transform:translateX(-3300px)}30.2%{transform:translateX(-3375px)}30.7%{transform:translateX(-3450px)}31%{transform:translateX(-3525px)}31.4%{transform:translateX(-3600px)}31.7%{transform:translateX(-3675px)}32.1%{transform:translateX(-3750px)}32.4%{transform:translateX(-3825px)}32.8%{transform:translateX(-3900px)}33.1%{transform:translateX(-3975px)}33.5%{transform:translateX(-4050px)}33.8%{transform:translateX(-4125px)}34.2%{transform:translateX(-4200px)}34.6%{transform:translateX(-4275px)}34.9%{transform:translateX(-4350px)}35.3%{transform:translateX(-4425px)}35.7%{transform:translateX(-4500px)}36.1%{transform:translateX(-4575px)}36.5%{transform:translateX(-4650px)}36.9%{transform:translateX(-4725px)}37.2%{transform:translateX(-4800px)}37.6%{transform:translateX(-4875px)}38.1%{transform:translateX(-4950px)}38.5%{transform:translateX(-5025px)}38.8%{transform:translateX(-5100px)}39.2%{transform:translateX(-5175px)}39.5%{transform:translateX(-5250px)}39.9%{transform:translateX(-5325px)}40.3%{transform:translateX(-5400px)}40.6%{transform:translateX(-5475px)}41%{transform:translateX(-5550px)}41.4%{transform:translateX(-5625px)}41.8%{transform:translateX(-5700px)}42.1%{transform:translateX(-5775px)}42.5%{transform:translateX(-5850px)}42.8%{transform:translateX(-5925px)}45%{transform:translateX(-6000px)}to{transform:translateX(-6075px)}}.a{fill:#282d35}.f{fill:#71bef2;font-weight:700;white-space:pre}.g,.h,.l,.m{fill:#b9c0cb;white-space:pre}.h,.l,.m{fill:#a8cc8c;font-weight:700}.l,.m{fill:#e88388}.m{fill:#66c2cd}</style><g font-family="Monaco,Consolas,Menlo,'Bitstream Vera Sans Mono','Powerline Symbols',monospace" font-size="1.67"><defs><symbol id="1"><text y="1.67" class="f">❯</text><text x="2.004" y="1.67" class="g">s</text></symbol><symbol id="2"><text y="1.67" class="f">❯</text><text x="2.004" y="1.67" class="g">sp</text></symbol><symbol id="3"><text y="1.67" class="f">❯</text><text x="2.004" y="1.67" class="g">spe</text></symbol><symbol id="4"><text y="1.67" class="f">❯</text><text x="2.004" y="1.67" class="g">spec</text></symbol><symbol id="5"><text y="1.67" class="f">❯</text><text x="2.004" y="1.67" class="g">speci</text></symbol><symbol id="6"><text y="1.67" class="f">❯</text><text x="2.004" y="1.67" class="g">specif</text></symbol><symbol id="7"><text y="1.67" class="f">❯</text><text x="2.004" y="1.67" class="g">specify</text></symbol><symbol id="8"><text y="1.67" class="f">❯</text><text x="2.004" y="1.67" class="g">specify</text><text x="10.02" y="1.67" class="g">spec</text></symbol><symbol id="9"><text y="1.67" class="f">❯</text><text x="2.004" y="1.67" class="g">specify</text><text x="10.02" y="1.67" class="g">spec</text><text x="15.03" y="1.67" class="g">lint</text></symbol><symbol id="10"><text y="1.67" class="f">❯</text><text x="2.004" y="1.67" class="g">specify</text><text x="10.02" y="1.67" class="g">spec</text><text x="15.03" y="1.67" class="g">lint</text><text x="20.04" y="1.67" class="g">--spec</text></symbol><symbol id="11"><text y="1.67" class="f">❯</text><text x="2.004" y="1.67" class="g">specify</text><text x="10.02" y="1.67" class="g">spec</text><text x="15.03" y="1.67" class="g">lint</text><text x="20.04" y="1.67" class="g">--spec</text><text x="27.054" y="1.67" class="g">app.spec.yaml</text></symbol><symbol id="12"><text y="1.67" class="h">✓</text><text x="2.004" y="1.67" class="h">Spec</text><text x="7.014" y="1.67" class="h">is</text><text x="10.02" y="1.67" class="h">valid</text></symbol><symbol id="13"><text y="1.67" class="f">❯</text><text x="2.004" y="1.67" class="g">specify</text><text x="10.02" y="1.67" class="g">cli</text></symbol><symbol id="14"><text y="1.67" class="f">❯</text><text x="2.004" y="1.67" class="g">specify</text><text x="10.02" y="1.67" class="g">cli</text><text x="14.028" y="1.67" class="g">run</text></symbol><symbol id="15"><text y="1.67" class="f">❯</text><text x="2.004" y="1.67" class="g">specify</text><text x="10.02" y="1.67" class="g">cli</text><text x="14.028" y="1.67" class="g">run</text><text x="18.036" y="1.67" class="g">--spec</text></symbol><symbol id="16"><text y="1.67" class="f">❯</text><text x="2.004" y="1.67" class="g">specify</text><text x="10.02" y="1.67" class="g">cli</text><text x="14.028" y="1.67" class="g">run</text><text x="18.036" y="1.67" class="g">--spec</text><text x="25.05" y="1.67" class="g">app.spec.yaml</text></symbol><symbol id="17"><text y="1.67" class="g">Running</text><text x="8.016" y="1.67" class="g">24</text><text x="11.022" y="1.67" class="g">commands...</text></symbol><symbol id="a"><path fill="transparent" d="M0 0h75v11H0z"/></symbol></defs><path class="a" d="M0 0h75v21.71H0z"/><g style="animation-duration:9.573674s;animation-iteration-count:infinite;animation-name:j;animation-timing-function:steps(1,end)"><svg width="6150"><svg><use xlink:href="#a"/></svg><svg x="75"><use xlink:href="#a"/></svg><svg x="150"><use xlink:href="#a"/><use xlink:href="#1"/></svg><svg x="225"><use xlink:href="#a"/><use xlink:href="#2"/></svg><svg x="300"><use xlink:href="#a"/><use xlink:href="#3"/></svg><svg x="375"><use xlink:href="#a"/><use xlink:href="#4"/></svg><svg x="450"><use xlink:href="#a"/><use xlink:href="#5"/></svg><svg x="525"><use xlink:href="#a"/><use xlink:href="#6"/></svg><svg x="600"><use xlink:href="#a"/><use xlink:href="#7"/></svg><svg x="675"><use xlink:href="#a"/><use xlink:href="#7"/></svg><svg x="750"><use xlink:href="#a"/><text y="1.67" class="f">❯</text><text x="2.004" y="1.67" class="g">specify</text><text x="10.02" y="1.67" class="g">s</text></svg><svg x="825"><use xlink:href="#a"/><text y="1.67" class="f">❯</text><text x="2.004" y="1.67" class="g">specify</text><text x="10.02" y="1.67" class="g">sp</text></svg><svg x="900"><use xlink:href="#a"/><text y="1.67" class="f">❯</text><text x="2.004" y="1.67" class="g">specify</text><text x="10.02" y="1.67" class="g">spe</text></svg><svg x="975"><use xlink:href="#a"/><use xlink:href="#8"/></svg><svg x="1050"><use xlink:href="#a"/><use xlink:href="#8"/></svg><svg x="1125"><use xlink:href="#a"/><text y="1.67" class="f">❯</text><text x="2.004" y="1.67" class="g">specify</text><text x="10.02" y="1.67" class="g">spec</text><text x="15.03" y="1.67" class="g">l</text></svg><svg x="1200"><use xlink:href="#a"/><text y="1.67" class="f">❯</text><text x="2.004" y="1.67" class="g">specify</text><text x="10.02" y="1.67" class="g">spec</text><text x="15.03" y="1.67" class="g">li</text></svg><svg x="1275"><use xlink:href="#a"/><text y="1.67" class="f">❯</text><text x="2.004" y="1.67" class="g">specify</text><text x="10.02" y="1.67" class="g">spec</text><text x="15.03" y="1.67" class="g">lin</text></svg><svg x="1350"><use xlink:href="#a"/><use xlink:href="#9"/></svg><svg x="1425"><use xlink:href="#a"/><use xlink:href="#9"/></svg><svg x="1500"><use xlink:href="#a"/><text y="1.67" class="f">❯</text><text x="2.004" y="1.67" class="g">specify</text><text x="10.02" y="1.67" class="g">spec</text><text x="15.03" y="1.67" class="g">lint</text><text x="20.04" y="1.67" class="g">-</text></svg><svg x="1575"><use xlink:href="#a"/><text y="1.67" class="f">❯</text><text x="2.004" y="1.67" class="g">specify</text><text x="10.02" y="1.67" class="g">spec</text><text x="15.03" y="1.67" class="g">lint</text><text x="20.04" y="1.67" class="g">--</text></svg><svg x="1650"><use xlink:href="#a"/><text y="1.67" class="f">❯</text><text x="2.004" y="1.67" class="g">specify</text><text x="10.02" y="1.67" class="g">spec</text><text x="15.03" y="1.67" class="g">lint</text><text x="20.04" y="1.67" class="g">--s</text></svg><svg x="1725"><use xlink:href="#a"/><text y="1.67" class="f">❯</text><text x="2.004" y="1.67" class="g">specify</text><text x="10.02" y="1.67" class="g">spec</text><text x="15.03" y="1.67" class="g">lint</text><text x="20.04" y="1.67" class="g">--sp</text></svg><svg x="1800"><use xlink:href="#a"/><text y="1.67" class="f">❯</text><text x="2.004" y="1.67" class="g">specify</text><text x="10.02" y="1.67" class="g">spec</text><text x="15.03" y="1.67" class="g">lint</text><text x="20.04" y="1.67" class="g">--spe</text></svg><svg x="1875"><use xlink:href="#a"/><use xlink:href="#10"/></svg><svg x="1950"><use xlink:href="#a"/><use xlink:href="#10"/></svg><svg x="2025"><use xlink:href="#a"/><text y="1.67" class="f">❯</text><text x="2.004" y="1.67" class="g">specify</text><text x="10.02" y="1.67" class="g">spec</text><text x="15.03" y="1.67" class="g">lint</text><text x="20.04" y="1.67" class="g">--spec</text><text x="27.054" y="1.67" class="g">a</text></svg><svg x="2100"><use xlink:href="#a"/><text y="1.67" class="f">❯</text><text x="2.004" y="1.67" class="g">specify</text><text x="10.02" y="1.67" class="g">spec</text><text x="15.03" y="1.67" class="g">lint</text><text x="20.04" y="1.67" class="g">--spec</text><text x="27.054" y="1.67" class="g">ap</text></svg><svg x="2175"><use xlink:href="#a"/><text y="1.67" class="f">❯</text><text x="2.004" y="1.67" class="g">specify</text><text x="10.02" y="1.67" class="g">spec</text><text x="15.03" y="1.67" class="g">lint</text><text x="20.04" y="1.67" class="g">--spec</text><text x="27.054" y="1.67" class="g">app</text></svg><svg x="2250"><use xlink:href="#a"/><text y="1.67" class="f">❯</text><text x="2.004" y="1.67" class="g">specify</text><text x="10.02" y="1.67" class="g">spec</text><text x="15.03" y="1.67" class="g">lint</text><text x="20.04" y="1.67" class="g">--spec</text><text x="27.054" y="1.67" class="g">app.</text></svg><svg x="2325"><use xlink:href="#a"/><text y="1.67" class="f">❯</text><text x="2.004" y="1.67" class="g">specify</text><text x="10.02" y="1.67" class="g">spec</text><text x="15.03" y="1.67" class="g">lint</text><text x="20.04" y="1.67" class="g">--spec</text><text x="27.054" y="1.67" class="g">app.s</text></svg><svg x="2400"><use xlink:href="#a"/><text y="1.67" class="f">❯</text><text x="2.004" y="1.67" class="g">specify</text><text x="10.02" y="1.67" class="g">spec</text><text x="15.03" y="1.67" class="g">lint</text><text x="20.04" y="1.67" class="g">--spec</text><text x="27.054" y="1.67" class="g">app.sp</text></svg><svg x="2475"><use xlink:href="#a"/><text y="1.67" class="f">❯</text><text x="2.004" y="1.67" class="g">specify</text><text x="10.02" y="1.67" class="g">spec</text><text x="15.03" y="1.67" class="g">lint</text><text x="20.04" y="1.67" class="g">--spec</text><text x="27.054" y="1.67" class="g">app.spe</text></svg><svg x="2550"><use xlink:href="#a"/><text y="1.67" class="f">❯</text><text x="2.004" y="1.67" class="g">specify</text><text x="10.02" y="1.67" class="g">spec</text><text x="15.03" y="1.67" class="g">lint</text><text x="20.04" y="1.67" class="g">--spec</text><text x="27.054" y="1.67" class="g">app.spec</text></svg><svg x="2625"><use xlink:href="#a"/><text y="1.67" class="f">❯</text><text x="2.004" y="1.67" class="g">specify</text><text x="10.02" y="1.67" class="g">spec</text><text x="15.03" y="1.67" class="g">lint</text><text x="20.04" y="1.67" class="g">--spec</text><text x="27.054" y="1.67" class="g">app.spec.</text></svg><svg x="2700"><use xlink:href="#a"/><text y="1.67" class="f">❯</text><text x="2.004" y="1.67" class="g">specify</text><text x="10.02" y="1.67" class="g">spec</text><text x="15.03" y="1.67" class="g">lint</text><text x="20.04" y="1.67" class="g">--spec</text><text x="27.054" y="1.67" class="g">app.spec.y</text></svg><svg x="2775"><use xlink:href="#a"/><text y="1.67" class="f">❯</text><text x="2.004" y="1.67" class="g">specify</text><text x="10.02" y="1.67" class="g">spec</text><text x="15.03" y="1.67" class="g">lint</text><text x="20.04" y="1.67" class="g">--spec</text><text x="27.054" y="1.67" class="g">app.spec.ya</text></svg><svg x="2850"><use xlink:href="#a"/><text y="1.67" class="f">❯</text><text x="2.004" y="1.67" class="g">specify</text><text x="10.02" y="1.67" class="g">spec</text><text x="15.03" y="1.67" class="g">lint</text><text x="20.04" y="1.67" class="g">--spec</text><text x="27.054" y="1.67" class="g">app.spec.yam</text></svg><svg x="2925"><use xlink:href="#a"/><use xlink:href="#11"/></svg><svg x="3000"><use xlink:href="#a"/><use xlink:href="#11"/></svg><svg x="3075"><use xlink:href="#a"/><use xlink:href="#11"/><use xlink:href="#12" y="2.171"/></svg><svg x="3150"><use xlink:href="#a"/><use xlink:href="#11"/><use xlink:href="#12" y="2.171"/><text y="8.183" class="f">❯</text></svg><svg x="3225"><use xlink:href="#a"/><use xlink:href="#11"/><use xlink:href="#12" y="2.171"/><use xlink:href="#1" y="6.513"/></svg><svg x="3300"><use xlink:href="#a"/><use xlink:href="#11"/><use xlink:href="#12" y="2.171"/><use xlink:href="#2" y="6.513"/></svg><svg x="3375"><use xlink:href="#a"/><use xlink:href="#11"/><use xlink:href="#12" y="2.171"/><use xlink:href="#3" y="6.513"/></svg><svg x="3450"><use xlink:href="#a"/><use xlink:href="#11"/><use xlink:href="#12" y="2.171"/><use xlink:href="#4" y="6.513"/></svg><svg x="3525"><use xlink:href="#a"/><use xlink:href="#11"/><use xlink:href="#12" y="2.171"/><use xlink:href="#5" y="6.513"/></svg><svg x="3600"><use xlink:href="#a"/><use xlink:href="#11"/><use xlink:href="#12" y="2.171"/><use xlink:href="#6" y="6.513"/></svg><svg x="3675"><use xlink:href="#a"/><use xlink:href="#11"/><use xlink:href="#12" y="2.171"/><use xlink:href="#7" y="6.513"/></svg><svg x="3750"><use xlink:href="#a"/><use xlink:href="#11"/><use xlink:href="#12" y="2.171"/><use xlink:href="#7" y="6.513"/></svg><svg x="3825"><use xlink:href="#a"/><use xlink:href="#11"/><use xlink:href="#12" y="2.171"/><text y="8.183" class="f">❯</text><text x="2.004" y="8.183" class="g">specify</text><text x="10.02" y="8.183" class="g">c</text></svg><svg x="3900"><use xlink:href="#a"/><use xlink:href="#11"/><use xlink:href="#12" y="2.171"/><text y="8.183" class="f">❯</text><text x="2.004" y="8.183" class="g">specify</text><text x="10.02" y="8.183" class="g">cl</text></svg><svg x="3975"><use xlink:href="#a"/><use xlink:href="#11"/><use xlink:href="#12" y="2.171"/><use xlink:href="#13" y="6.513"/></svg><svg x="4050"><use xlink:href="#a"/><use xlink:href="#11"/><use xlink:href="#12" y="2.171"/><use xlink:href="#13" y="6.513"/></svg><svg x="4125"><use xlink:href="#a"/><use xlink:href="#11"/><use xlink:href="#12" y="2.171"/><text y="8.183" class="f">❯</text><text x="2.004" y="8.183" class="g">specify</text><text x="10.02" y="8.183" class="g">cli</text><text x="14.028" y="8.183" class="g">r</text></svg><svg x="4200"><use xlink:href="#a"/><use xlink:href="#11"/><use xlink:href="#12" y="2.171"/><text y="8.183" class="f">❯</text><text x="2.004" y="8.183" class="g">specify</text><text x="10.02" y="8.183" class="g">cli</text><text x="14.028" y="8.183" class="g">ru</text></svg><svg x="4275"><use xlink:href="#a"/><use xlink:href="#11"/><use xlink:href="#12" y="2.171"/><use xlink:href="#14" y="6.513"/></svg><svg x="4350"><use xlink:href="#a"/><use xlink:href="#11"/><use xlink:href="#12" y="2.171"/><use xlink:href="#14" y="6.513"/></svg><svg x="4425"><use xlink:href="#a"/><use xlink:href="#11"/><use xlink:href="#12" y="2.171"/><text y="8.183" class="f">❯</text><text x="2.004" y="8.183" class="g">specify</text><text x="10.02" y="8.183" class="g">cli</text><text x="14.028" y="8.183" class="g">run</text><text x="18.036" y="8.183" class="g">-</text></svg><svg x="4500"><use xlink:href="#a"/><use xlink:href="#11"/><use xlink:href="#12" y="2.171"/><text y="8.183" class="f">❯</text><text x="2.004" y="8.183" class="g">specify</text><text x="10.02" y="8.183" class="g">cli</text><text x="14.028" y="8.183" class="g">run</text><text x="18.036" y="8.183" class="g">--</text></svg><svg x="4575"><use xlink:href="#a"/><use xlink:href="#11"/><use xlink:href="#12" y="2.171"/><text y="8.183" class="f">❯</text><text x="2.004" y="8.183" class="g">specify</text><text x="10.02" y="8.183" class="g">cli</text><text x="14.028" y="8.183" class="g">run</text><text x="18.036" y="8.183" class="g">--s</text></svg><svg x="4650"><use xlink:href="#a"/><use xlink:href="#11"/><use xlink:href="#12" y="2.171"/><text y="8.183" class="f">❯</text><text x="2.004" y="8.183" class="g">specify</text><text x="10.02" y="8.183" class="g">cli</text><text x="14.028" y="8.183" class="g">run</text><text x="18.036" y="8.183" class="g">--sp</text></svg><svg x="4725"><use xlink:href="#a"/><use xlink:href="#11"/><use xlink:href="#12" y="2.171"/><text y="8.183" class="f">❯</text><text x="2.004" y="8.183" class="g">specify</text><text x="10.02" y="8.183" class="g">cli</text><text x="14.028" y="8.183" class="g">run</text><text x="18.036" y="8.183" class="g">--spe</text></svg><svg x="4800"><use xlink:href="#a"/><use xlink:href="#11"/><use xlink:href="#12" y="2.171"/><use xlink:href="#15" y="6.513"/></svg><svg x="4875"><use xlink:href="#a"/><use xlink:href="#11"/><use xlink:href="#12" y="2.171"/><use xlink:href="#15" y="6.513"/></svg><svg x="4950"><use xlink:href="#a"/><use xlink:href="#11"/><use xlink:href="#12" y="2.171"/><text y="8.183" class="f">❯</text><text x="2.004" y="8.183" class="g">specify</text><text x="10.02" y="8.183" class="g">cli</text><text x="14.028" y="8.183" class="g">run</text><text x="18.036" y="8.183" class="g">--spec</text><text x="25.05" y="8.183" class="g">a</text></svg><svg x="5025"><use xlink:href="#a"/><use xlink:href="#11"/><use xlink:href="#12" y="2.171"/><text y="8.183" class="f">❯</text><text x="2.004" y="8.183" class="g">specify</text><text x="10.02" y="8.183" class="g">cli</text><text x="14.028" y="8.183" class="g">run</text><text x="18.036" y="8.183" class="g">--spec</text><text x="25.05" y="8.183" class="g">ap</text></svg><svg x="5100"><use xlink:href="#a"/><use xlink:href="#11"/><use xlink:href="#12" y="2.171"/><text y="8.183" class="f">❯</text><text x="2.004" y="8.183" class="g">specify</text><text x="10.02" y="8.183" class="g">cli</text><text x="14.028" y="8.183" class="g">run</text><text x="18.036" y="8.183" class="g">--spec</text><text x="25.05" y="8.183" class="g">app</text></svg><svg x="5175"><use xlink:href="#a"/><use xlink:href="#11"/><use xlink:href="#12" y="2.171"/><text y="8.183" class="f">❯</text><text x="2.004" y="8.183" class="g">specify</text><text x="10.02" y="8.183" class="g">cli</text><text x="14.028" y="8.183" class="g">run</text><text x="18.036" y="8.183" class="g">--spec</text><text x="25.05" y="8.183" class="g">app.</text></svg><svg x="5250"><use xlink:href="#a"/><use xlink:href="#11"/><use xlink:href="#12" y="2.171"/><text y="8.183" class="f">❯</text><text x="2.004" y="8.183" class="g">specify</text><text x="10.02" y="8.183" class="g">cli</text><text x="14.028" y="8.183" class="g">run</text><text x="18.036" y="8.183" class="g">--spec</text><text x="25.05" y="8.183" class="g">app.s</text></svg><svg x="5325"><use xlink:href="#a"/><use xlink:href="#11"/><use xlink:href="#12" y="2.171"/><text y="8.183" class="f">❯</text><text x="2.004" y="8.183" class="g">specify</text><text x="10.02" y="8.183" class="g">cli</text><text x="14.028" y="8.183" class="g">run</text><text x="18.036" y="8.183" class="g">--spec</text><text x="25.05" y="8.183" class="g">app.sp</text></svg><svg x="5400"><use xlink:href="#a"/><use xlink:href="#11"/><use xlink:href="#12" y="2.171"/><text y="8.183" class="f">❯</text><text x="2.004" y="8.183" class="g">specify</text><text x="10.02" y="8.183" class="g">cli</text><text x="14.028" y="8.183" class="g">run</text><text x="18.036" y="8.183" class="g">--spec</text><text x="25.05" y="8.183" class="g">app.spe</text></svg><svg x="5475"><use xlink:href="#a"/><use xlink:href="#11"/><use xlink:href="#12" y="2.171"/><text y="8.183" class="f">❯</text><text x="2.004" y="8.183" class="g">specify</text><text x="10.02" y="8.183" class="g">cli</text><text x="14.028" y="8.183" class="g">run</text><text x="18.036" y="8.183" class="g">--spec</text><text x="25.05" y="8.183" class="g">app.spec</text></svg><svg x="5550"><use xlink:href="#a"/><use xlink:href="#11"/><use xlink:href="#12" y="2.171"/><text y="8.183" class="f">❯</text><text x="2.004" y="8.183" class="g">specify</text><text x="10.02" y="8.183" class="g">cli</text><text x="14.028" y="8.183" class="g">run</text><text x="18.036" y="8.183" class="g">--spec</text><text x="25.05" y="8.183" class="g">app.spec.</text></svg><svg x="5625"><use xlink:href="#a"/><use xlink:href="#11"/><use xlink:href="#12" y="2.171"/><text y="8.183" class="f">❯</text><text x="2.004" y="8.183" class="g">specify</text><text x="10.02" y="8.183" class="g">cli</text><text x="14.028" y="8.183" class="g">run</text><text x="18.036" y="8.183" class="g">--spec</text><text x="25.05" y="8.183" class="g">app.spec.y</text></svg><svg x="5700"><use xlink:href="#a"/><use xlink:href="#11"/><use xlink:href="#12" y="2.171"/><text y="8.183" class="f">❯</text><text x="2.004" y="8.183" class="g">specify</text><text x="10.02" y="8.183" class="g">cli</text><text x="14.028" y="8.183" class="g">run</text><text x="18.036" y="8.183" class="g">--spec</text><text x="25.05" y="8.183" class="g">app.spec.ya</text></svg><svg x="5775"><use xlink:href="#a"/><use xlink:href="#11"/><use xlink:href="#12" y="2.171"/><text y="8.183" class="f">❯</text><text x="2.004" y="8.183" class="g">specify</text><text x="10.02" y="8.183" class="g">cli</text><text x="14.028" y="8.183" class="g">run</text><text x="18.036" y="8.183" class="g">--spec</text><text x="25.05" y="8.183" class="g">app.spec.yam</text></svg><svg x="5850"><use xlink:href="#a"/><use xlink:href="#11"/><use xlink:href="#12" y="2.171"/><use xlink:href="#16" y="6.513"/></svg><svg x="5925"><use xlink:href="#a"/><use xlink:href="#11"/><use xlink:href="#12" y="2.171"/><use xlink:href="#16" y="6.513"/></svg><svg x="6000"><use xlink:href="#a"/><use xlink:href="#11"/><use xlink:href="#12" y="2.171"/><use xlink:href="#16" y="6.513"/><use xlink:href="#17" y="8.684"/></svg><svg x="6075"><use xlink:href="#a"/><use xlink:href="#11"/><use xlink:href="#12" y="2.171"/><use xlink:href="#16" y="6.513"/><use xlink:href="#17" y="8.684"/><text y="12.525" class="h">✓</text><text x="2.004" y="12.525" class="h">101</text><text x="6.012" y="12.525" class="h">passed</text><text x="14.028" y="12.525" class="l">✗</text><text x="16.032" y="12.525" class="l">1</text><text x="18.036" y="12.525" class="l">failed</text><text x="26.052" y="12.525" class="g">○</text><text x="28.056" y="12.525" class="g">0</text><text x="30.06" y="12.525" class="g">untested</text><text x="40.08" y="12.525" class="m">100%</text><text x="45.09" y="12.525" class="m">coverage</text></svg></svg></g></g></svg></svg>